<svg
	viewBox="0 0 358 379"
>
	<path class="st0" d="M348.8,227.2c-10.3-19-20.7-38-31-57c-28.2-51.7-56.3-103.5-84.5-155.2C227.6,4.8,218.6,1.8,208.9,7
		c-59.8,32.5-119.6,65-179.4,97.5c-3,1.6-2.8,2.7-0.9,5.1c9.2,11.1,19.3,21.2,30.5,30.2c33.9,27.5,72.5,46.4,113.3,61
		c52.4,18.7,106.3,29.8,162,31.7c3.7,0,7.3,0,11,0C351.6,232.4,351.6,232.4,348.8,227.2z"/>
	<path class="st0" d="M9.9,192.3c30.8,56.6,61.6,113.1,92.4,169.6c6.6,12.1,15.1,14.5,27.3,7.9c70.2-38.2,140.3-76.4,210.4-114.6
		c1.4-0.7,3-1.1,4-2.7C228.1,252.3,115.4,236.1,8,188.5C8.8,190,9.3,191.2,9.9,192.3z"/>
</svg>